<svg xmlns="http://www.w3.org/2000/svg" width="36" height="14" viewBox="40 40 120 100"><path fill="#FFF" d="M0 0h192v192H0V0z"/><g fill="#5F6368"><path d="M92.61 100.7V119H87V74h14.89c3.78 0 6.99 1.3 9.64 3.89 2.68 2.59 4.03 5.74 4.03 9.46 0 3.8-1.34 6.98-4.03 9.53-2.6 2.55-5.82 3.82-9.64 3.82h-9.28zm0-21.19v15.67h9.4c2.24 0 4.09-.77 5.55-2.32 1.5-1.54 2.26-3.38 2.26-5.51 0-2.09-.75-3.91-2.26-5.45-1.46-1.59-3.32-2.38-5.55-2.38l-9.4-.01zM128.58 87.29c4.15 0 7.42 1.14 9.83 3.42 2.4 2.28 3.6 5.4 3.6 9.37V119h-5.37v-4.26h-.24c-2.32 3.51-5.41 5.26-9.27 5.26-3.29 0-6.05-1-8.27-3.01-2.22-2.01-3.33-4.51-3.33-7.52 0-3.18 1.17-5.7 3.51-7.58s5.46-2.82 9.36-2.82c3.33 0 6.08.63 8.24 1.88v-1.32c0-2.01-.77-3.71-2.32-5.11-1.55-1.4-3.35-2.1-5.43-2.1-3.13 0-5.61 1.36-7.44 4.08l-4.94-3.2c2.71-4.01 6.74-6.01 12.07-6.01zm-7.27 22.31c0 1.5.62 2.76 1.86 3.76 1.24 1 2.7 1.5 4.36 1.5 2.36 0 4.46-.9 6.31-2.69 1.85-1.8 2.78-3.91 2.78-6.33-1.75-1.42-4.19-2.13-7.32-2.13-2.28 0-4.18.57-5.7 1.69-1.52 1.13-2.29 2.52-2.29 4.2zM172.9 88l-18.73 44.24h-5.79l6.96-15.48L143 88h6.1l8.91 22.06h.12L166.8 88h6.1z"/></g><path fill="#4285F4" d="M70.97 96.59c0-1.95-.19-3.81-.52-5.59H46v9.99h14.04c-.54 3.39-2.39 6.27-5.24 8.19v6.54h8.43c4.91-4.52 7.74-11.22 7.74-19.13z"/><path fill="#34A853" d="M46 122c7.02 0 12.93-2.31 17.23-6.28l-8.43-6.54c-2.32 1.56-5.3 2.48-8.8 2.48-6.77 0-12.5-4.57-14.55-10.72h-8.68v6.74C27.05 116.17 35.84 122 46 122z"/><path fill="#FBBC05" d="M31.45 100.94c-.52-1.56-.81-3.22-.81-4.94s.29-3.38.81-4.94v-6.74h-8.68A25.907 25.907 0 0 0 20 96c0 4.2 1 8.16 2.77 11.67l8.68-6.73z"/><path fill="#EA4335" d="M46 80.34c3.82 0 7.24 1.32 9.94 3.89l7.45-7.45C58.89 72.58 53.01 70 46 70c-10.16 0-18.95 5.83-23.23 14.33l8.68 6.74C33.5 84.91 39.23 80.34 46 80.34z"/><path fill="none" d="M20 70h52v52H20z"/></svg>
