<svg width="158" height="79" xmlns="http://www.w3.org/2000/svg"><g fill="none" fill-rule="evenodd"><text font-family="GoogleSans-Medium, Google Sans" font-size="18" font-weight="400" fill="#202124" fill-opacity=".54" transform="translate(0 -6)"><tspan x="0" y="79">Google Play Points</tspan></text><path fill="#FFF" d="M70.667 12.667h18.667v18.667H70.667z"/><path d="M52 50h56V-6H52z"/><path d="M80 30.249l-4.125-4.126h-3.3L68.45 30.25v3.301L76.7 41.8a4.666 4.666 0 0 0 6.6 0l8.25-8.249V30.25l-4.125-4.126h-3.3L80 30.25z" fill="#FF3A44"/><path d="M76.7 2.2l-8.25 8.251v3.3l4.125 4.125h3.3L80 13.751l4.125 4.125h3.3l4.125-4.125v-3.3l-8.25-8.25a4.666 4.666 0 0 0-6.6 0" fill="#00E676"/><path d="M88.249 22l-4.126 4.125 7.427 7.425L99.8 25.3a4.666 4.666 0 0 0 0-6.6l-8.249-8.25-7.427 7.425L88.25 22z" fill="#FFCA28"/><path d="M71.751 22l4.126-4.125-7.427-7.425L60.2 18.7a4.666 4.666 0 0 0 0 6.6l8.249 8.25 7.427-7.425L71.75 22z" fill="#40C4FF"/></g></svg>